#!OML:ASF C:\ViconDB\ViconDB\414\Spring2016\041811\Spring2016.ASF
:FULLY-SPECIFIED
:DEGREES
446
root 13.9939 13.4764 -13.6582 142.401 -60.3551 243.103
lowerback 37.3416 -2.92154 -7.63561
upperback 11.1476 -8.77215 -7.31723
thorax -6.11744 -4.71075 -0.504956
lowerneck -23.1464 -2.04289 -14.5304
upperneck 16.9657 -5.65178 29.5515
head 10.8997 -1.02711 13.1397
rclavicle 7.95139e-014 1.27222e-014
rhumerus -33.1353 -32.7004 -1.6962
rradius 22.6951
rwrist 52.4499
rhand -30.1938 -24.6385
rfingers 7.12502
rthumb -3.50463 -54.5895
lclavicle 7.95139e-014 1.27222e-014
lhumerus 13.2212 15.896 34.5294
lradius 25.2039
lwrist -4.37057
lhand -33.5717 36.8391
lfingers 7.12502
lthumb -6.76615 66.711
rfemur 187.505 205.574 -138.332
rtibia -81.3426
rfoot 68.1212 -108.393
rtoes 47.7354
lfemur -104.785 19.3888 -4.50446
ltibia 64.6082
lfoot 6.64608 9.33651
ltoes -8.21822
447
root 14.0615 13.5586 -13.5792 144.94 -60.7834 240.241
lowerback 37.1047 -3.42143 -7.77481
upperback 11.4571 -9.43445 -7.45085
thorax -5.68767 -5.06229 -0.379361
lowerneck -23.3388 -1.93928 -14.3821
upperneck 16.8455 -5.54096 29.5407
head 10.8599 -0.967781 13.1093
rclavicle 1.30403e-013 3.97569e-014
rhumerus -34.383 -31.426 -0.924838
rradius 22.7586
rwrist 52.4639
rhand -30.653 -24.2305
rfingers 7.12502
rthumb -3.94809 -54.1736
lclavicle 1.30403e-013 3.97569e-014
lhumerus 15.5379 16.5235 33.117
lradius 25.9602
lwrist -4.74482
lhand -34.4987 36.0097
lfingers 7.12502
lthumb -7.66098 65.8509
rfemur 186.269 205.739 -139.187
rtibia -80.2356
rfoot 67.9085 -107.725
rtoes 47.7354
lfemur -104.358 19.112 -3.82208
ltibia 66.5279
lfoot 6.5286 8.52809
ltoes -8.80977
448
root 14.1179 13.6394 -13.5046 147.481 -60.9294 237.45
lowerback 36.4441 -3.79901 -7.81777
upperback 11.8176 -9.85617 -7.51961
thorax -5.0617 -5.31848 -0.360347
lowerneck -23.2879 -1.95526 -14.5639
upperneck 16.516 -5.53163 29.8116
head 10.7541 -0.982754 13.2392
rclavicle 9.22361e-014 2.38542e-014
rhumerus -36.1081 -30.4908 0.0633725
rradius 22.9578
rwrist 52.4677
rhand -30.5479 -23.5953
rfingers 7.12502
rthumb -3.84656 -53.5404
lclavicle 9.22361e-014 2.38542e-014
lhumerus 17.7286 17.2218 31.9007
lradius 26.8196
lwrist -6.36505
lhand -34.8875 35.3112
lfingers 7.12502
lthumb -8.03618 65.1385
rfemur 185.146 205.752 -139.878
rtibia -79.1194
rfoot 67.2417 -107.121
rtoes 47.7354
lfemur -103.874 19.0181 -2.78551
ltibia 69.0213
lfoot 5.73492 8.01098
ltoes -8.6549
449
root 14.1693 13.7143 -13.4199 149.98 -60.7287 234.886
lowerback 35.4941 -4.08553 -7.8755
upperback 12.2501 -10.0923 -7.3286
thorax -4.32748 -5.50216 -0.0950121
lowerneck -23.3799 -2.02842 -15.0525
upperneck 16.0943 -5.37376 29.903
head 10.5963 -0.935174 13.3682
rclavicle 3.81667e-014 -1.35174e-013
rhumerus -38.0359 -31.0479 1.9274
rradius 23.0829
rwrist 53.6899
rhand -29.8693 -22.5493
rfingers 7.12502
rthumb -3.19125 -52.5052
lclavicle 3.81667e-014 -1.35174e-013
lhumerus 19.8798 18.0025 30.9158
lradius 27.4713
lwrist -6.92994
lhand -35.8814 33.2276
lfingers 7.12502
lthumb -8.99535 63.0158
rfemur 183.775 205.704 -140.112
rtibia -77.9346
rfoot 67.3462 -106.488
rtoes 47.7354
lfemur -103.838 19.3346 -2.20436
ltibia 71.9147
lfoot 5.11726 6.79977
ltoes -9.32353
450
root 14.2227 13.8095 -13.3142 152.662 -60.5882 232.028
lowerback 35.0364 -4.36578 -8.1279
upperback 12.4226 -10.4554 -7.12565
thorax -3.88349 -5.72317 0.295304
lowerneck -23.4906 -1.96604 -15.3105
upperneck 15.9025 -5.08469 29.741
head 10.4603 -0.816727 13.3683
rclavicle -1.27222e-014 4.92986e-014
rhumerus -39.4193 -29.4883 2.25908
rradius 23.5494
rwrist 51.2111
rhand -30.0269 -21.726
rfingers 7.12502
rthumb -3.34342 -51.6796
lclavicle -1.27222e-014 4.92986e-014
lhumerus 21.613 17.9039 29.1211
lradius 28.2916
lwrist -6.9928
lhand -36.0474 32.7468
lfingers 7.12502
lthumb -9.15554 62.5281
rfemur 182.223 205.704 -140.626
rtibia -76.5117
rfoot 66.5717 -105.661
rtoes 47.7354
lfemur -103.698 19.3715 -1.61597
ltibia 75.0522
lfoot 4.61661 5.73013
ltoes -10.6711
